%FSLAX25Y25*%
%MOIN*%
G70*
G01*
G75*
G04 Layer_Physical_Order=2*
G04 Layer_Color=16711680*
%ADD10C,0.03000*%
%ADD11C,0.02000*%
%ADD12R,0.16929X0.07480*%
%ADD13R,0.05512X0.04724*%
%ADD14R,0.04724X0.05512*%
%ADD15R,0.07480X0.25000*%
%ADD16R,0.07480X0.16929*%
%ADD17R,0.08268X0.12992*%
%ADD18R,0.05906X0.02559*%
%ADD19R,0.47244X0.51181*%
%ADD20R,0.04200X0.08500*%
%ADD21C,0.05906*%
%ADD22R,0.05906X0.05906*%
%ADD23R,0.04000X0.08000*%
%ADD24R,0.08000X0.04000*%
%ADD25R,0.05906X0.05906*%
%ADD26R,0.07480X0.06299*%
%ADD27C,0.06000*%
%ADD28C,0.09055*%
%ADD29R,0.09055X0.09055*%
%ADD30C,0.05900*%
%ADD31R,0.05900X0.05900*%
%ADD32R,0.09055X0.09055*%
%ADD33C,0.05000*%
%ADD34C,0.02362*%
G36*
X188000Y82000D02*
X168000D01*
Y102000D01*
X188000D01*
Y82000D01*
D02*
G37*
G36*
X214000Y174000D02*
Y109000D01*
X212000D01*
Y88000D01*
X210000Y86000D01*
X196000D01*
Y109000D01*
X178000D01*
Y175000D01*
X214000Y174000D01*
D02*
G37*
D10*
X150243Y160834D02*
G03*
X141150Y164600I-9093J-9093D01*
G01*
X152364Y162955D02*
G03*
X148393Y164600I-3971J-3971D01*
G01*
X166573Y162000D02*
G03*
X163757Y160834I0J-3982D01*
G01*
Y163166D02*
G03*
X166573Y162000I2816J2816D01*
G01*
X150243Y150834D02*
G03*
X139218Y155400I-11025J-11025D01*
G01*
X152364Y152955D02*
G03*
X146461Y155400I-5903J-5903D01*
G01*
X149767Y152156D02*
G03*
X148600Y155400I-4029J383D01*
G01*
X166573Y152000D02*
G03*
X163757Y150834I0J-3982D01*
G01*
Y153166D02*
G03*
X166573Y152000I2816J2816D01*
G01*
X148000Y142000D02*
G03*
X150116Y143024I0J2698D01*
G01*
Y140976D02*
G03*
X148000Y142000I-2116J-1675D01*
G01*
X150781Y140475D02*
G03*
X145400Y139400I-1885J-4571D01*
G01*
X166573Y142000D02*
G03*
X163757Y140834I0J-3982D01*
G01*
Y143166D02*
G03*
X166573Y142000I2816J2816D01*
G01*
X148000Y132000D02*
G03*
X150116Y133024I0J2698D01*
G01*
Y130976D02*
G03*
X148000Y132000I-2116J-1675D01*
G01*
X151409Y130350D02*
G03*
X142773Y126773I0J-12214D01*
G01*
X151409Y133350D02*
G03*
X147894Y131894I0J-4971D01*
G01*
X166573Y132000D02*
G03*
X163757Y130834I0J-3982D01*
G01*
Y133166D02*
G03*
X166573Y132000I2816J2816D01*
G01*
X152000Y118017D02*
G03*
X150834Y120834I-3982J0D01*
G01*
X153166D02*
G03*
X152000Y118017I2816J-2816D01*
G01*
X165507Y122000D02*
G03*
X163027Y120973I0J-3507D01*
G01*
Y123027D02*
G03*
X165507Y122000I2480J2480D01*
G01*
X152000Y108655D02*
G03*
X152953Y106353I3255J0D01*
G01*
X138000Y123900D02*
G03*
X141244Y125244I0J4587D01*
G01*
X162000Y122000D02*
X170457D01*
X162000Y132000D02*
X170456D01*
X162000Y142000D02*
X170456D01*
X162000Y162000D02*
X170456D01*
X162000Y152000D02*
X170456D01*
X170457Y152000D01*
X148000Y132000D02*
X152000D01*
X139400Y123400D02*
X148000Y132000D01*
X136000Y123400D02*
X139400D01*
X148000Y142000D02*
X152000D01*
X145400Y139400D02*
X148000Y142000D01*
X136000Y139400D02*
X145400D01*
X152000Y104600D02*
Y122000D01*
Y104600D02*
X152600Y104000D01*
X136000Y155400D02*
X148600D01*
X152000Y152000D01*
X136000Y164600D02*
X149400D01*
X152000Y162000D01*
D11*
X167292Y54504D02*
G03*
X170621Y55883I0J4708D01*
G01*
Y53125D02*
G03*
X167292Y54504I-3329J-3329D01*
G01*
X29400Y172024D02*
G03*
X30416Y169573I3467J0D01*
G01*
X25427D02*
G03*
X29400Y179166I-9593J9593D01*
G01*
X26841Y168159D02*
G03*
X29400Y174337I-6178J6178D01*
G01*
X21899Y158101D02*
G03*
X27921Y155606I6022J6022D01*
G01*
X24394Y152079D02*
G03*
X21899Y158101I-8516J0D01*
G01*
X33943Y143101D02*
G03*
X31449Y137079I6022J-6022D01*
G01*
X27921Y140606D02*
G03*
X33943Y143101I0J8516D01*
G01*
X34784Y122079D02*
G03*
X30790Y120026I0J-4913D01*
G01*
Y124132D02*
G03*
X34784Y122079I3995J2859D01*
G01*
X33943Y98101D02*
G03*
X31449Y92079I6022J-6022D01*
G01*
X27921Y95606D02*
G03*
X33943Y98101I0J8516D01*
G01*
X36438Y62079D02*
G03*
X30416Y59584I0J-8516D01*
G01*
Y64573D02*
G03*
X36438Y62079I6022J6022D01*
G01*
X19400Y194986D02*
G03*
X18020Y198319I-4714J0D01*
G01*
X20781D02*
G03*
X19400Y194986I3334J-3334D01*
G01*
X29400D02*
G03*
X28019Y198319I-4714J0D01*
G01*
X30781D02*
G03*
X29400Y194986I3334J-3334D01*
G01*
X39400D02*
G03*
X38019Y198319I-4714J0D01*
G01*
X40781D02*
G03*
X39400Y194986I3334J-3334D01*
G01*
Y206704D02*
G03*
X38612Y207913I-1321J0D01*
G01*
X40188D02*
G03*
X39400Y206704I533J-1209D01*
G01*
X41350Y209594D02*
G03*
X44353Y201752I10288J-557D01*
G01*
X39353Y209703D02*
G03*
X41184Y204921I6273J-340D01*
G01*
X52734Y206366D02*
G03*
X49400Y207747I-3334J-3334D01*
G01*
X51353Y209700D02*
G03*
X52734Y206366I4714J0D01*
G01*
X69400Y194986D02*
G03*
X68019Y198319I-4714J0D01*
G01*
X70781D02*
G03*
X69400Y194986I3334J-3334D01*
G01*
X79400D02*
G03*
X78019Y198319I-4714J0D01*
G01*
X80781D02*
G03*
X79400Y194986I3334J-3334D01*
G01*
Y206704D02*
G03*
X78612Y207913I-1321J0D01*
G01*
X80188D02*
G03*
X79400Y206704I533J-1209D01*
G01*
X74448Y201752D02*
G03*
X77450Y209594I-7285J7285D01*
G01*
X77617Y204921D02*
G03*
X79448Y209703I-4442J4442D01*
G01*
X92734Y206366D02*
G03*
X89400Y207747I-3334J-3334D01*
G01*
X91353Y209700D02*
G03*
X92734Y206366I4714J0D01*
G01*
X109400Y206704D02*
G03*
X108612Y207913I-1321J0D01*
G01*
X110188D02*
G03*
X109400Y206704I533J-1209D01*
G01*
X104448Y201752D02*
G03*
X107450Y209594I-7285J7285D01*
G01*
X107617Y204921D02*
G03*
X109448Y209703I-4442J4442D01*
G01*
X115855Y205855D02*
G03*
X117448Y209700I-3845J3845D01*
G01*
X119400Y207747D02*
G03*
X116578Y206578I0J-3991D01*
G01*
X69400Y175069D02*
G03*
X71061Y171061I5669J0D01*
G01*
X93439Y126561D02*
G03*
X96000Y125500I2561J2561D01*
G01*
X94500Y124000D02*
G03*
X93439Y126561I-3621J0D01*
G01*
X90025Y143975D02*
G03*
X96000Y141500I5975J5975D01*
G01*
X93439Y140561D02*
G03*
X96000Y139500I2561J2561D01*
G01*
Y159621D02*
G03*
X97061Y157061I3621J0D01*
G01*
X94939D02*
G03*
X96000Y159621I-2561J2561D01*
G01*
X106561Y182561D02*
G03*
X105500Y180000I2561J-2561D01*
G01*
X104000Y181500D02*
G03*
X106561Y182561I0J3621D01*
G01*
X114353Y204353D02*
X119400Y209400D01*
X114353Y190353D02*
Y204353D01*
X104000Y180000D02*
X114353Y190353D01*
X109400Y206704D02*
Y209700D01*
X104447Y201752D02*
X109400Y206704D01*
X104447Y188447D02*
Y201752D01*
X96000Y180000D02*
X104447Y188447D01*
X96000Y156000D02*
Y180000D01*
X89400Y209700D02*
X94353Y204747D01*
Y186353D02*
Y204747D01*
X90000Y182000D02*
X94353Y186353D01*
X90000Y144000D02*
Y182000D01*
Y144000D02*
X94000Y140000D01*
X96000D01*
X79400Y190600D02*
Y199700D01*
Y190600D02*
X86000Y184000D01*
Y134000D02*
Y184000D01*
Y134000D02*
X96000Y124000D01*
X19400Y160600D02*
Y199700D01*
Y160600D02*
X27921Y152079D01*
X29400Y168558D02*
Y199700D01*
X79400Y206704D02*
Y209700D01*
X74448Y201752D02*
X79400Y206704D01*
X27921Y62079D02*
X52079D01*
X137496Y54504D02*
X172000D01*
X104000Y88000D02*
X137496Y54504D01*
X74448Y88000D02*
X104000D01*
X27921Y167079D02*
X29400Y168558D01*
X39400Y148558D02*
Y199700D01*
X27921Y137079D02*
X39400Y148558D01*
Y206704D02*
Y209700D01*
Y206704D02*
X44353Y201752D01*
Y131647D02*
Y201752D01*
X34785Y122079D02*
X44353Y131647D01*
X27921Y122079D02*
X34785D01*
X49400Y209700D02*
X54353Y204747D01*
Y118510D02*
Y204747D01*
X27921Y92079D02*
X54353Y118510D01*
X74448Y171916D02*
X74500Y171864D01*
X74448Y171916D02*
Y201752D01*
X74500Y84500D02*
Y171864D01*
X69400Y170600D02*
X70000Y170000D01*
X69400Y170600D02*
Y199700D01*
X52079Y62079D02*
X74500Y84500D01*
D14*
X170457Y152000D02*
D03*
X177543D02*
D03*
Y142000D02*
D03*
X170457D02*
D03*
Y132000D02*
D03*
X177543D02*
D03*
X170457Y122000D02*
D03*
X177543D02*
D03*
X170457Y162000D02*
D03*
X177543D02*
D03*
X195543Y96000D02*
D03*
X188457D02*
D03*
D21*
X129400Y209700D02*
D03*
Y199700D02*
D03*
X119400Y209700D02*
D03*
Y199700D02*
D03*
X109400Y209700D02*
D03*
Y199700D02*
D03*
X99400Y209700D02*
D03*
Y199700D02*
D03*
X89400Y209700D02*
D03*
Y199700D02*
D03*
X79400Y209700D02*
D03*
Y199700D02*
D03*
X69400Y209700D02*
D03*
Y199700D02*
D03*
X59400Y209700D02*
D03*
Y199700D02*
D03*
X49400Y209700D02*
D03*
Y199700D02*
D03*
X39400Y209700D02*
D03*
Y199700D02*
D03*
X29400Y209700D02*
D03*
Y199700D02*
D03*
X19400Y209700D02*
D03*
Y199700D02*
D03*
X9400Y209700D02*
D03*
D22*
Y199700D02*
D03*
D23*
X321400Y110000D02*
D03*
X314600D02*
D03*
X321400Y140000D02*
D03*
X314600D02*
D03*
X152600Y104000D02*
D03*
X159400D02*
D03*
D24*
X136000Y155400D02*
D03*
Y148600D02*
D03*
X136000Y164600D02*
D03*
Y171400D02*
D03*
X136000Y123400D02*
D03*
Y116600D02*
D03*
Y139400D02*
D03*
Y132600D02*
D03*
D25*
X162000Y122000D02*
D03*
D26*
X152000D02*
D03*
X162000Y132000D02*
D03*
X152000D02*
D03*
X162000Y142000D02*
D03*
X152000D02*
D03*
X162000Y152000D02*
D03*
X152000D02*
D03*
X162000Y162000D02*
D03*
X152000D02*
D03*
D27*
X208000Y92000D02*
D03*
Y136000D02*
D03*
D28*
X27921Y167079D02*
D03*
Y152079D02*
D03*
Y137079D02*
D03*
Y122079D02*
D03*
Y107079D02*
D03*
Y92079D02*
D03*
Y77079D02*
D03*
Y62079D02*
D03*
X28000Y47039D02*
D03*
X299961Y28000D02*
D03*
D29*
X28000Y32000D02*
D03*
D30*
X172000Y86000D02*
D03*
D31*
Y54504D02*
D03*
D32*
X315000Y28000D02*
D03*
D33*
X104000Y180000D02*
D03*
X96000Y156000D02*
D03*
Y140000D02*
D03*
Y124000D02*
D03*
X70000Y170000D02*
D03*
D34*
X119400Y209400D02*
Y209700D01*
M02*
