M48
;Layer_Color=9474304
;FILE_FORMAT=2:5
INCH,LZ
;TYPE=PLATED
T1F00S00C0.02800
T2F00S00C0.03000
T3F00S00C0.03150
T4F00S00C0.03500
T5F00S00C0.03543
T6F00S00C0.04724
%
T01
X0096Y0124
Y014
Y0156
X0104Y018
X007Y017
T02
X0208Y0092
Y0136
T03
X0172Y0054504
Y0086
T04
X03146Y011
X03214
Y014
X03146
X0136Y01394
Y01326
Y01234
Y01166
X01526Y0104
X01594
X0136Y01486
Y01554
X0136Y01646
Y01714
T05
X00294Y01997
X00394
X00494
X00594
X00694
X00794
X00894
X00994
X01094
X01194
X01294
Y02097
X01194
X01094
X00994
X00894
X00794
X00694
X00594
X00494
X00394
X00294
X0152Y0162
Y0152
Y0142
Y0132
Y0122
X0162
Y0132
Y0142
Y0152
Y0162
X00194Y01997
Y02097
X00094
Y01997
T06
X0028Y0032
Y0047039
X0027921Y0062079
Y0077079
X0299961Y0028
X0315
X0027921Y0092079
Y0107079
Y0122079
Y0137079
Y0152079
Y0167079
M30
